##      ## ########     ###    ######## ##     ## 
##  ##  ## ##     ##   ## ##      ##    ##     ## 
##  ##  ## ##     ##  ##   ##     ##    ##     ## 
##  ##  ## ########  ##     ##    ##    ######### 
##  ##  ## ##   ##   #########    ##    ##     ## 
##  ##  ## ##    ##  ##     ##    ##    ##     ## 
 ###  ###  ##     ## ##     ##    ##    ##     ## 


File Name : Hobo with a Shotgun 2011 1080p HDTVrip H264-Wrath.mp4

File Size
Format : MPEG-4
Format profile : Base Media
Codec ID : isom
File size : 3.99 GiB
Duration : 1h 26mn
Overall bit rate : 6 636 Kbps

Video
ID : 1
Format : AVC
Format/Info : Advanced Video Codec
Format profile : High@L4.1
Format settings, CABAC : Yes
Format settings, ReFrames : 3 frames
Codec ID : avc1
Codec ID/Info : Advanced Video Coding
Duration : 1h 26mn
Bit rate mode : Variable
Bit rate : 6 099 Kbps
Maximum bit rate : 18.7 Mbps
Width : 1 920 pixels
Height : 800 pixels
Display aspect ratio : 2.473
Original display aspect ratio : 2.474
Frame rate mode : Constant
Frame rate : 29.970 fps
Resolution : 24 bits
Colorimetry : 4:2:0
Scan type : Progressive
Bits/(Pixel*Frame) : 0.132
Stream size : 3.67 GiB (92%)

Audio #1
ID : 2
Format : AAC
Format/Info : Advanced Audio Codec
Format version : Version 4
Format profile : LC
Format settings, SBR : No
Codec ID : 40
Duration : 1h 26mn
Bit rate mode : Variable
Bit rate : 177 Kbps
Maximum bit rate : 231 Kbps
Channel(s) : 2 channels
Channel positions : L R
Sampling rate : 48.0 KHz
Resolution : 16 bits
Stream size : 109 MiB (3%)

Audio #2
ID : 3
Format : AAC
Format/Info : Advanced Audio Codec
Format version : Version 4
Format profile : LC
Format settings, SBR : No
Codec ID : 40
Duration : 1h 26mn
Bit rate mode : Variable
Bit rate : 352.8 Kbps
Maximum bit rate : 433 Kbps
Channel(s) : 6 channels
Channel positions : Front: L C R, Rear: L R, LFE
Sampling rate : 48.0 KHz
Resolution : 16 bits
Stream size : 218 MiB (5%)

English SRT : External
Language : English

Source File : Hobo with a Shotgun 2011 1080i HDTV MPEG2-RAS.ts


 
http://www.imdb.com/title/tt1640459



Release Date: 19 May 2011 (Netherlands) 
Genre: Action | Comedy | Crime 
Plot: A vigilante homeless man pulls into a new city and finds himself trapped in urban chaos, a city where crime rules and where the city's crime boss reigns. Seeing an urban landscape filled with armed robbers, corrupt cops, abused prostitutes and even a pedophile Santa, the Hobo goes about bringing justice to the city the best way he knows how - with a 20-gauge shotgun. Mayhem ensues when he tries to make things better for the future generation. Street justice will indeed prevail. 
Cast:
Rutger Hauer ... Hobo
Gregory Smith ... Slick
Robb Wells 
Molly Dunsworth ... Abby
Nick Bateman ... Ivan / RIP
Brian Downey ... Drake
Jeremy Akerman ... Chief Wakeum
David Brunt 
Michael Ray Fox ... Doctor
Pasha Ebrahimi ... Bum fight film maker
Glen Matthews ... Gang Leader
Peter Simas ... Grinder
Scott Vrooman ... Rookie Cop
Mark A. Owen ... Thug 1
Alexander Rosborough ... Gang Member #3 (as Zander Rosborough) 








Screen Pics:
 
http://leetleech.org/images/29233482983079254124.png
 
http://leetleech.org/images/26604671898186168607.png
 
http://leetleech.org/images/86056079753348497669.png
 
http://leetleech.org/images/15137714855670499262.png
 
http://leetleech.org/images/41727950113194234788.png


##      ## ########     ###    ######## ##     ## 
##  ##  ## ##     ##   ## ##      ##    ##     ## 
##  ##  ## ##     ##  ##   ##     ##    ##     ## 
##  ##  ## ########  ##     ##    ##    ######### 
##  ##  ## ##   ##   #########    ##    ##     ## 
##  ##  ## ##    ##  ##     ##    ##    ##     ## 
 ###  ###  ##     ## ##     ##    ##    ##     ## 
